<?xml version="1.0" standalone="no"?>
<!DOCTYPE svg PUBLIC "-//W3C//DTD SVG 20010904//EN"
 "http://www.w3.org/TR/2001/REC-SVG-20010904/DTD/svg10.dtd">
<svg version="1.0" xmlns="http://www.w3.org/2000/svg"
 width="257.000000pt" height="167.000000pt" viewBox="0 0 257.000000 167.000000"
 preserveAspectRatio="xMidYMid meet">

<g transform="translate(0.000000,167.000000) scale(0.100000,-0.100000)"
fill="#FFFFFF" stroke="none">
<path d="M756 1630 c-64 -41 -144 -122 -152 -156 -10 -38 4 -55 64 -84 29 -14
52 -27 52 -30 0 -4 -80 -11 -177 -18 -270 -18 -533 -78 -533 -122 0 -10 7 -21
16 -24 26 -10 36 -7 31 9 -4 8 -2 17 2 19 20 13 218 57 312 71 99 14 329 21
329 10 0 -21 -205 -472 -398 -876 -156 -326 -185 -400 -165 -420 7 -7 20 -9
30 -5 15 6 15 9 3 16 -21 13 -12 33 185 445 144 300 342 733 376 823 7 17 16
22 44 22 19 0 35 -2 35 -4 0 -5 -115 -313 -150 -401 -17 -44 -54 -129 -82
-188 -68 -143 -55 -159 37 -43 37 48 72 86 76 86 5 0 9 -10 9 -23 0 -48 39
-59 106 -31 35 15 39 15 50 0 16 -22 38 -20 71 8 28 24 29 24 52 5 31 -26 83
-24 140 5 l47 23 -4 -28 c-5 -37 4 -36 43 0 42 40 67 46 90 21 22 -24 40 -25
79 -5 16 9 30 14 32 13 1 -2 -11 -34 -27 -72 -30 -71 -37 -116 -18 -116 7 0
39 30 73 67 33 36 83 84 111 106 49 39 50 39 63 18 16 -23 51 -28 70 -9 24 24
11 -3 -46 -93 l-58 -91 -76 -23 c-43 -12 -96 -35 -119 -51 -45 -30 -122 -127
-143 -179 -55 -132 -3 -200 92 -119 40 34 198 235 237 302 17 29 24 32 65 32
26 0 129 -14 231 -31 170 -28 199 -30 379 -27 179 3 199 5 247 27 50 22 81 46
71 56 -2 2 -31 -7 -65 -20 -77 -31 -236 -49 -358 -40 -49 4 -167 20 -262 36
-94 16 -189 29 -210 29 -22 0 -42 2 -45 5 -6 6 439 753 493 830 19 26 40 56
48 67 11 15 11 21 2 31 -18 18 -32 -2 -246 -361 -172 -288 -197 -325 -231
-343 -39 -20 -39 -20 -53 1 -26 38 -67 20 -167 -73 l-61 -57 97 233 c54 127
114 267 134 310 41 89 41 87 23 87 -17 0 -96 -159 -172 -347 l-57 -141 -50
-22 -50 -21 -15 20 c-15 23 -53 27 -84 11 -15 -8 -19 -7 -19 5 0 20 3 20 -81
-20 -41 -19 -83 -35 -95 -35 -27 0 -52 28 -60 68 -8 41 -32 42 -79 1 -36 -32
-143 -81 -157 -73 -4 3 -8 21 -8 40 0 41 -22 46 -64 13 -14 -11 -26 -18 -26
-15 0 3 15 43 34 88 61 148 156 408 156 428 0 26 15 26 192 -4 116 -20 260
-56 411 -102 36 -11 16 24 -23 40 -43 17 -596 166 -617 166 -18 0 -16 21 5 72
38 87 63 171 57 189 -9 28 -44 24 -99 -11z m48 -72 c-9 -29 -27 -77 -40 -107
-23 -52 -25 -53 -56 -47 -41 8 -78 32 -78 52 0 35 179 192 188 164 2 -5 -4
-34 -14 -62z m16 -218 c13 -9 13 -10 0 -9 -8 1 -26 5 -40 9 l-25 8 25 1 c14 0
32 -4 40 -9z m100 -584 c0 -2 -8 -10 -17 -17 -16 -13 -17 -12 -4 4 13 16 21
21 21 13z m610 -267 c-23 -41 -144 -196 -198 -251 -69 -71 -87 -74 -79 -17 17
131 160 283 270 288 15 1 16 -2 7 -20z"/>
<path d="M1925 787 c-36 -32 -47 -48 -42 -61 8 -20 23 -19 99 10 44 17 48 17
66 1 22 -21 78 -22 112 -2 32 18 40 18 40 0 0 -18 8 -18 40 0 33 19 50 19 50
0 0 -21 40 -19 69 4 23 17 27 18 49 3 22 -14 27 -14 68 6 64 31 54 60 -11 30
-19 -9 -31 -8 -49 2 -21 11 -29 10 -58 -8 l-34 -21 -13 20 c-9 16 -19 19 -38
14 -16 -4 -29 -2 -33 5 -5 8 -25 4 -68 -14 -74 -31 -85 -32 -121 -5 -27 20
-30 20 -66 5 -49 -21 -58 -12 -11 11 20 9 35 22 33 27 -8 24 -37 15 -82 -27z"/>
</g>
</svg>
